<svg width="20" height="18" viewBox="0 0 20 18" fill="none" xmlns="http://www.w3.org/2000/svg">
<g clip-path="url(#clip0_678_80)">
<path d="M6.11154 17.9999C6.53396 17.9999 6.82706 17.7869 7.35292 17.3444L10.3271 14.8292H15.8615C18.4305 14.8292 19.8098 13.4773 19.8098 11.0768V4.80097C19.8098 2.40042 18.4305 1.04858 15.8615 1.04858H4.7581C2.18913 1.04858 0.809814 2.39224 0.809814 4.80097V11.0768C0.809814 13.4856 2.18913 14.8292 4.7581 14.8292H5.17189V16.9594C5.17189 17.5903 5.5081 17.9999 6.11154 17.9999ZM6.46499 16.5006V14.1246C6.46499 13.6822 6.28396 13.5101 5.81844 13.5101H4.7581C3.01671 13.5101 2.19775 12.6663 2.19775 11.0686V4.80097C2.19775 3.20334 3.01671 2.36766 4.7581 2.36766H15.8615C17.5943 2.36766 18.4219 3.20334 18.4219 4.80097V11.0686C18.4219 12.6663 17.5943 13.5101 15.8615 13.5101H10.2753C9.79255 13.5101 9.55119 13.5757 9.22362 13.8952L6.46499 16.5006ZM4.86154 8.88924H8.41324C8.68911 8.88924 8.91325 8.67629 8.91325 8.40586C8.91325 8.15194 8.68911 7.93891 8.41324 7.93891H4.86154C4.58568 7.93891 4.36154 8.15194 4.36154 8.40586C4.36154 8.67629 4.58568 8.88924 4.86154 8.88924ZM10.1977 8.88924H15.7754C16.0512 8.88924 16.2667 8.67629 16.2667 8.40586C16.2667 8.15194 16.0512 7.93891 15.7754 7.93891H10.1977C9.92188 7.93891 9.69773 8.15194 9.69773 8.40586C9.69773 8.67629 9.92188 8.88924 10.1977 8.88924ZM4.86154 11.0276H6.32706C6.60292 11.0276 6.81844 10.8228 6.81844 10.5607C6.81844 10.2903 6.60292 10.0773 6.32706 10.0773H4.86154C4.58568 10.0773 4.36154 10.2903 4.36154 10.5607C4.36154 10.8228 4.58568 11.0276 4.86154 11.0276ZM8.10292 11.0276H12.4219C12.6978 11.0276 12.9219 10.8228 12.9219 10.5607C12.9219 10.2903 12.6978 10.0773 12.4219 10.0773H8.10292C7.82706 10.0773 7.61154 10.2903 7.61154 10.5607C7.61154 10.8228 7.82706 11.0276 8.10292 11.0276ZM14.2064 11.0276H15.7754C16.0512 11.0276 16.2667 10.8228 16.2667 10.5607C16.2667 10.2903 16.0512 10.0773 15.7754 10.0773H14.2064C13.9305 10.0773 13.7063 10.2903 13.7063 10.5607C13.7063 10.8228 13.9305 11.0276 14.2064 11.0276Z" fill="#474953"/>
</g>
<defs>
<clipPath id="clip0_678_80">
<rect width="19" height="18" fill="white" transform="translate(0.809814)"/>
</clipPath>
</defs>
</svg>
