<svg width="36" height="36" viewBox="0 0 36 36" fill="none" xmlns="http://www.w3.org/2000/svg">
<path d="M10.0834 31.7147V29.0832C10.0834 28.2433 10.417 27.4379 11.0109 26.844C11.6048 26.2501 12.4102 25.9165 13.2501 25.9165H22.7501C23.5899 25.9165 24.3954 26.2501 24.9893 26.844C25.5831 27.4379 25.9167 28.2433 25.9167 29.0832V31.7147M33.8334 17.9998C33.8334 26.7443 26.7446 33.8332 18.0001 33.8332C9.25557 33.8332 2.16675 26.7443 2.16675 17.9998C2.16675 9.25533 9.25557 2.1665 18.0001 2.1665C26.7446 2.1665 33.8334 9.25533 33.8334 17.9998ZM22.7501 14.8332C22.7501 17.4565 20.6234 19.5832 18.0001 19.5832C15.3767 19.5832 13.2501 17.4565 13.2501 14.8332C13.2501 12.2098 15.3767 10.0832 18.0001 10.0832C20.6234 10.0832 22.7501 12.2098 22.7501 14.8332Z" stroke="black" stroke-width="3" stroke-linecap="round" stroke-linejoin="round"/>
</svg>
