<svg width="16" height="16" viewBox="0 0 16 16" fill="none" xmlns="http://www.w3.org/2000/svg">
<path d="M5.46935 12.4693C5.32845 12.6102 5.2493 12.8013 5.2493 13.0006C5.2493 13.1998 5.32845 13.3909 5.46935 13.5318C5.61025 13.6727 5.80134 13.7519 6.0006 13.7519C6.19986 13.7519 6.39095 13.6727 6.53185 13.5318L11.5319 8.53182C11.6018 8.46214 11.6572 8.37935 11.6951 8.28818C11.733 8.19702 11.7524 8.09928 11.7524 8.00057C11.7524 7.90186 11.733 7.80412 11.6951 7.71295C11.6572 7.62179 11.6018 7.539 11.5319 7.46932L6.53185 2.46932C6.39095 2.32842 6.19986 2.24927 6.0006 2.24927C5.80134 2.24927 5.61025 2.32842 5.46935 2.46932C5.32845 2.61021 5.2493 2.80131 5.2493 3.00057C5.2493 3.19983 5.32845 3.39092 5.46935 3.53182L9.93748 7.99994L5.46935 12.4693Z" fill="#A7A9B4"/>
</svg>
