<svg width="16" height="16" viewBox="0 0 16 16" fill="none" xmlns="http://www.w3.org/2000/svg">
<path d="M10.5307 12.4693C10.6715 12.6102 10.7507 12.8013 10.7507 13.0006C10.7507 13.1998 10.6715 13.3909 10.5307 13.5318C10.3898 13.6727 10.1987 13.7519 9.9994 13.7519C9.80014 13.7519 9.60905 13.6727 9.46815 13.5318L4.46815 8.53182C4.39823 8.46214 4.34275 8.37935 4.3049 8.28818C4.26704 8.19702 4.24756 8.09928 4.24756 8.00057C4.24756 7.90186 4.26704 7.80412 4.3049 7.71295C4.34275 7.62179 4.39823 7.539 4.46815 7.46932L9.46815 2.46932C9.60905 2.32842 9.80014 2.24927 9.9994 2.24927C10.1987 2.24927 10.3898 2.32842 10.5307 2.46932C10.6715 2.61021 10.7507 2.80131 10.7507 3.00057C10.7507 3.19983 10.6715 3.39092 10.5307 3.53182L6.06252 7.99994L10.5307 12.4693Z" fill="#A7A9B4"/>
</svg>
