<svg width="19" height="19" viewBox="0 0 19 19" fill="none" xmlns="http://www.w3.org/2000/svg">
<g clip-path="url(#clip0_678_22)">
<path d="M5.3071 18.5C5.72951 18.5 6.02262 18.287 6.54848 17.8446L9.52262 15.3293H15.0571C17.6261 15.3293 19.0054 13.9774 19.0054 11.577V5.3011C19.0054 2.90055 17.6261 1.54871 15.0571 1.54871H3.95365C1.38468 1.54871 0.00537109 2.89236 0.00537109 5.3011V11.577C0.00537109 13.9857 1.38468 15.3293 3.95365 15.3293H4.36745V17.4595C4.36745 18.0904 4.70365 18.5 5.3071 18.5ZM5.66055 17.0007V14.6247C5.66055 14.1823 5.47952 14.0102 5.01399 14.0102H3.95365C2.21227 14.0102 1.3933 13.1664 1.3933 11.5687V5.3011C1.3933 3.70346 2.21227 2.86778 3.95365 2.86778H15.0571C16.7899 2.86778 17.6175 3.70346 17.6175 5.3011V11.5687C17.6175 13.1664 16.7899 14.0102 15.0571 14.0102H9.47091C8.98811 14.0102 8.74675 14.0758 8.41917 14.3953L5.66055 17.0007ZM4.0571 9.38937H7.6088C7.88466 9.38937 8.10881 9.17641 8.10881 8.90598C8.10881 8.65206 7.88466 8.43903 7.6088 8.43903H4.0571C3.78123 8.43903 3.5571 8.65206 3.5571 8.90598C3.5571 9.17641 3.78123 9.38937 4.0571 9.38937ZM9.3933 9.38937H14.9709C15.2468 9.38937 15.4623 9.17641 15.4623 8.90598C15.4623 8.65206 15.2468 8.43903 14.9709 8.43903H9.3933C9.11743 8.43903 8.89329 8.65206 8.89329 8.90598C8.89329 9.17641 9.11743 9.38937 9.3933 9.38937ZM4.0571 11.5277H5.52262C5.79848 11.5277 6.014 11.323 6.014 11.0608C6.014 10.7904 5.79848 10.5774 5.52262 10.5774H4.0571C3.78123 10.5774 3.5571 10.7904 3.5571 11.0608C3.5571 11.323 3.78123 11.5277 4.0571 11.5277ZM7.29848 11.5277H11.6175C11.8933 11.5277 12.1174 11.323 12.1174 11.0608C12.1174 10.7904 11.8933 10.5774 11.6175 10.5774H7.29848C7.02262 10.5774 6.8071 10.7904 6.8071 11.0608C6.8071 11.323 7.02262 11.5277 7.29848 11.5277ZM13.4019 11.5277H14.9709C15.2468 11.5277 15.4623 11.323 15.4623 11.0608C15.4623 10.7904 15.2468 10.5774 14.9709 10.5774H13.4019C13.126 10.5774 12.9019 10.7904 12.9019 11.0608C12.9019 11.323 13.126 11.5277 13.4019 11.5277Z" fill="#A7A9B4"/>
</g>
<defs>
<clipPath id="clip0_678_22">
<rect width="19" height="18" fill="white" transform="translate(0.00537109 0.5)"/>
</clipPath>
</defs>
</svg>
